<svg width="48" height="64" viewBox="0 0 48 64" fill="none" xmlns="http://www.w3.org/2000/svg">
<g clip-path="url(#clip0)">
<path d="M45.9654 56.2523H1.23706V62.177H45.9654V56.2523Z" fill="#F4C222"/>
<path d="M46.0304 14.8444H39.9104V59.1821H46.0304V14.8444Z" fill="#F4C222"/>
<path d="M43.3611 64H3.90641C1.75788 64 0 62.3072 0 60.1587V11.3286C0 9.24519 1.75788 7.4873 3.90641 7.4873H13.0865C13.8026 7.4873 14.3235 8.07327 14.3235 8.72433C14.3235 9.44051 13.7375 9.96136 13.0865 9.96136H3.90641C3.12513 9.96136 2.53917 10.5473 2.53917 11.2635V60.0936C2.53917 60.8098 3.19023 61.3957 3.90641 61.3957H43.296C44.0773 61.3957 44.6633 60.8098 44.6633 60.0936V11.2635C44.6633 10.5473 44.0122 9.96136 43.296 9.96136C42.5799 9.96136 42.059 9.3754 42.059 8.72433C42.059 8.00816 42.645 7.4873 43.296 7.4873C45.4446 7.4873 47.2024 9.18008 47.2024 11.3286V60.1587C47.2675 62.2421 45.5097 64 43.3611 64Z" fill="#256782"/>
<path d="M32.293 24.6755H13.998C13.2818 24.6755 12.761 24.0895 12.761 23.4384C12.761 22.7223 13.3469 22.2014 13.998 22.2014H32.293C33.0092 22.2014 33.5301 22.7874 33.5301 23.4384C33.5952 24.0895 33.0092 24.6755 32.293 24.6755Z" fill="#256782"/>
<path d="M32.293 33.7253H13.998C13.2818 33.7253 12.761 33.1393 12.761 32.4882C12.761 31.7721 13.3469 31.2512 13.998 31.2512H32.293C33.0092 31.2512 33.5301 31.8372 33.5301 32.4882C33.5952 33.1393 33.0092 33.7253 32.293 33.7253Z" fill="#256782"/>
<path d="M25.3266 42.7752H13.998C13.2818 42.7752 12.761 42.1892 12.761 41.5382C12.761 40.822 13.3469 40.3011 13.998 40.3011H25.3266C26.0428 40.3011 26.5636 40.8871 26.5636 41.5382C26.6287 42.1892 26.0428 42.7752 25.3266 42.7752Z" fill="#256782"/>
<path d="M39.9106 57.5544H7.35715C6.64097 57.5544 6.12012 56.9685 6.12012 56.3174V15.1699C6.12012 14.4537 6.70608 13.9329 7.35715 13.9329H39.8454C40.5616 13.9329 41.0825 14.5188 41.0825 15.1699V56.2523C41.1476 56.9685 40.5616 57.5544 39.9106 57.5544ZM8.65928 55.0153H38.6084V16.472H8.65928V55.0153Z" fill="#256782"/>
<path d="M35.353 16.1465H12.9563C12.2401 16.1465 11.7192 15.5605 11.7192 14.9094V9.57068C11.7192 7.35705 13.5422 5.53406 15.7559 5.53406H32.5534C34.7671 5.53406 36.59 7.35705 36.59 9.57068V14.9094C36.59 15.5605 36.0692 16.1465 35.353 16.1465ZM14.2584 13.6073H34.116V9.50557C34.116 8.65918 33.4649 8.00812 32.6185 8.00812H15.7559C14.9095 8.00812 14.2584 8.65918 14.2584 9.50557V13.6073Z" fill="#256782"/>
<path d="M30.0144 8.00814H18.2951C17.579 8.00814 17.0581 7.42218 17.0581 6.77111V2.92981C17.0581 1.30214 18.4253 0 20.053 0H28.1914C29.8841 0 31.2514 1.30214 31.2514 2.92981V6.706C31.3165 7.42218 30.7305 8.00814 30.0144 8.00814ZM19.5973 5.46897H28.7773V2.92981C28.7773 2.66938 28.5169 2.47406 28.2565 2.47406H20.053C19.7926 2.47406 19.5322 2.66938 19.5322 2.92981V5.46897H19.5973Z" fill="#256782"/>
</g>
<defs>
<clipPath id="clip0">
<rect width="47.2675" height="64" fill="white"/>
</clipPath>
</defs>
</svg>
