<svg width="80" height="64" viewBox="0 0 80 64" fill="none" xmlns="http://www.w3.org/2000/svg">
<g clip-path="url(#clip0)">
<path d="M50.3752 40.2915C50.3752 40.2915 52.8771 43.5002 60.1553 43.5002C67.4336 43.5002 70.7315 38.4338 70.7315 38.4338C70.7315 38.4338 76.3607 41.3611 77.498 44.6261C78.5783 47.8911 78.8626 49.4673 78.8626 49.4673C78.8626 49.4673 72.3805 59.3749 58.3358 59.3749C48.3851 59.3749 41.05 53.4079 41.05 53.4079C41.05 53.4079 40.8226 44.3446 50.3752 40.2915Z" fill="#EEEEEE"/>
<path d="M47.9302 25.0361C47.4185 25.0361 47.0205 24.6983 46.8499 24.248C46.793 24.1917 46.7361 24.1917 46.7361 24.1354C46.2244 23.7976 45.4283 23.2347 45.0303 21.6022C44.4048 19.069 45.144 17.9994 45.8832 17.4928C46.6224 16.9861 47.5891 17.0424 48.3851 17.5491C48.8969 17.8868 49.0106 18.5623 48.6694 19.069C48.3283 19.5756 47.6459 19.6882 47.1342 19.3505C47.0773 19.5193 46.9636 20.0823 47.2479 21.0955C47.4753 21.9399 47.7028 22.1088 48.0439 22.334C48.3851 22.5592 48.8969 22.9532 49.0674 23.7413C49.1812 24.3606 48.7831 24.9235 48.2145 25.0361C48.1008 25.0361 48.0439 25.0361 47.9302 25.0361Z" fill="#AEAEAE"/>
<path d="M68.7414 25.036C68.6846 25.036 68.6277 25.036 68.514 25.036C67.8885 24.9234 67.5474 24.3605 67.6611 23.7413C67.8317 22.9532 68.3434 22.6154 68.6846 22.334C69.0257 22.1088 69.31 21.8836 69.4806 21.0955C69.7081 20.0822 69.6512 19.5756 69.5943 19.3504C69.0826 19.6319 68.4003 19.5193 68.0591 19.0689C67.7179 18.5623 67.7748 17.8868 68.2865 17.549C69.0826 16.9861 70.0492 16.9861 70.7884 17.4927C71.5276 17.9994 72.21 19.0689 71.6413 21.6021C71.2433 23.2346 70.4473 23.7976 69.9355 24.1353C69.8787 24.1916 69.8218 24.1916 69.8218 24.2479C69.6512 24.7546 69.1963 25.036 68.7414 25.036Z" fill="#AEAEAE"/>
<path d="M48.6127 21.0392C48.2146 21.0392 47.8735 20.8703 47.7029 20.5326C46.2245 18.2808 45.8833 15.4099 46.7931 12.8767C48.4989 7.81028 52.3086 5.33337 58.3359 5.33337C64.5338 5.33337 68.3434 7.92286 70.0493 13.2707C70.7885 15.5787 70.5042 18.2245 69.2532 20.42C69.0826 20.7577 68.6846 21.0392 68.2866 20.9829C67.8886 20.9829 67.4905 20.7577 67.3199 20.3637C67.1494 19.9696 66.9788 19.6882 66.8082 19.3504C66.7513 19.2378 66.6945 19.1252 66.5808 18.9563C63.1691 19.6319 59.9849 19.5756 57.0281 18.7312C56.0615 18.4497 55.2085 18.1119 54.4125 17.7742C52.7067 17.0987 51.6832 16.7046 50.944 17.155C50.3185 17.549 49.8636 18.506 49.693 20.0259C49.6362 20.4763 49.295 20.8703 48.8401 20.9829C48.7832 20.9829 48.6695 21.0392 48.6127 21.0392ZM66.8082 16.7609C67.3199 16.7609 67.7748 16.9861 68.116 17.3238C68.3434 16.198 68.2866 15.0158 67.9454 13.89C66.5808 9.55537 63.5103 7.52881 58.3359 7.52881C53.2753 7.52881 50.2616 9.44278 48.8401 13.6085C48.4989 14.5655 48.3852 15.5787 48.5558 16.592C48.897 16.0291 49.3519 15.635 49.8636 15.2973C51.5694 14.3403 53.3321 15.0721 55.2654 15.8039C56.0046 16.0854 56.8007 16.4231 57.6536 16.6483C60.326 17.4364 63.226 17.4927 66.4102 16.7609C66.5239 16.7609 66.6376 16.7609 66.8082 16.7609Z" fill="#AEAEAE"/>
<path d="M58.336 36.2947C52.7636 36.2947 47.9304 31.172 46.8501 24.1353C46.7363 23.5161 47.1912 22.9531 47.7598 22.8969C48.3284 22.7843 48.9539 23.2346 49.0108 23.7975C49.9206 29.7646 53.844 34.0992 58.2791 34.0992C62.7143 34.0992 66.6377 29.7646 67.5475 23.7975C67.6612 23.1783 68.2298 22.7843 68.7984 22.8969C69.4239 23.0094 69.8219 23.5724 69.7082 24.1353C68.7416 31.172 63.9084 36.2947 58.336 36.2947Z" fill="#AEAEAE"/>
<path d="M58.3358 60.4445C44.2912 60.4445 36.9561 51.0435 36.6718 50.5932C36.5012 50.4243 36.4443 50.1991 36.4443 49.9177C36.9561 42.3181 42.699 36.1258 50.4322 34.8311L50.6596 34.7748C51.2851 34.6622 51.8537 35.0563 51.9674 35.6755C52.0811 36.2947 51.6831 36.8576 51.0576 36.9702L50.8302 37.0265C44.2343 38.0961 39.2874 43.2751 38.6619 49.6362C40.0266 51.2124 46.793 58.3054 58.3358 58.3054C69.8218 58.3054 76.4176 51.2124 77.7254 49.6925C77.1 43.3314 72.2099 38.1524 65.614 37.0265H65.5572H65.4435C64.818 36.9702 64.3631 36.4636 64.42 35.8444C64.4768 35.2251 64.9886 34.7748 65.614 34.8311C65.7278 34.8311 65.7846 34.8311 65.8984 34.8874H65.9552C73.6883 36.1821 79.4313 42.3744 79.943 49.974C79.943 50.2554 79.8862 50.4806 79.7156 50.7058C79.4881 51.0435 72.3805 60.4445 58.3358 60.4445Z" fill="#AEAEAE"/>
<path d="M45.7696 56.6729C45.1441 56.6729 44.6892 56.1662 44.6892 55.6033V48.2289C44.6892 47.6096 45.201 47.1593 45.7696 47.1593C46.3382 47.1593 46.8499 47.6659 46.8499 48.2289V55.6033C46.8499 56.2225 46.395 56.6729 45.7696 56.6729Z" fill="#AEAEAE"/>
<path d="M71.3001 55.8848C70.6746 55.8848 70.2197 55.3781 70.2197 54.8152V48.2289C70.2197 47.6096 70.7315 47.1593 71.3001 47.1593C71.9256 47.1593 72.3804 47.6659 72.3804 48.2289V54.8152C72.3804 55.3781 71.9256 55.8848 71.3001 55.8848Z" fill="#AEAEAE"/>
<path d="M58.3357 60.4444C57.7103 60.4444 57.2554 59.9378 57.2554 59.3748V40.9106C57.2554 40.2914 57.7671 39.8411 58.3357 39.8411C58.9612 39.8411 59.4161 40.3477 59.4161 40.9106V59.3748C59.473 59.9941 58.9612 60.4444 58.3357 60.4444Z" fill="#AEAEAE"/>
</g>
<g clip-path="url(#clip1)">
<path d="M15.9211 40.5965C15.9211 40.5965 18.7804 44.3228 27.0984 44.3228C35.4163 44.3228 39.1854 38.4392 39.1854 38.4392C39.1854 38.4392 45.6188 41.8386 46.9185 45.6302C48.1532 49.4218 48.4781 51.2523 48.4781 51.2523C48.4781 51.2523 41.0699 62.7579 25.0189 62.7579C13.6467 62.7579 5.26372 55.8284 5.26372 55.8284C5.26372 55.8284 5.00378 45.3034 15.9211 40.5965Z" fill="#B0E55C"/>
<path d="M13.1269 22.8805C12.542 22.8805 12.0871 22.4882 11.8922 21.9653C11.8272 21.8999 11.7622 21.8999 11.7622 21.8345C11.1774 21.4423 10.2676 20.7885 9.81269 18.8927C9.09786 15.9509 9.94265 14.7089 10.7874 14.1205C11.6322 13.5322 12.737 13.5975 13.6467 14.1859C14.2316 14.5781 14.3616 15.3626 13.9717 15.9509C13.5818 16.5393 12.802 16.6701 12.2171 16.2778C12.1521 16.4739 12.0221 17.1277 12.3471 18.3044C12.607 19.285 12.8669 19.4811 13.2568 19.7426C13.6467 20.0041 14.2316 20.4617 14.4266 21.3769C14.5565 22.096 14.1016 22.7497 13.4518 22.8805C13.3218 22.8805 13.2568 22.8805 13.1269 22.8805Z" fill="#256782"/>
<path d="M36.9111 22.8805C36.8461 22.8805 36.7811 22.8805 36.6511 22.8805C35.9363 22.7498 35.5464 22.096 35.6764 21.3769C35.8713 20.4617 36.4562 20.0695 36.8461 19.7426C37.236 19.4811 37.5609 19.2196 37.7559 18.3044C38.0158 17.1277 37.9508 16.5393 37.8858 16.2779C37.301 16.6047 36.5212 16.474 36.1313 15.951C35.7414 15.3626 35.8063 14.5782 36.3912 14.1859C37.301 13.5322 38.4057 13.5322 39.2505 14.1206C40.0953 14.7089 40.8751 15.951 40.2253 18.8928C39.7704 20.7886 38.8606 21.4423 38.2757 21.8345C38.2108 21.8999 38.1458 21.8999 38.1458 21.9653C37.9508 22.5536 37.4309 22.8805 36.9111 22.8805Z" fill="#256782"/>
<path d="M13.9067 18.239C13.4518 18.239 13.0619 18.0429 12.8669 17.6507C11.1774 15.0358 10.7875 11.7017 11.8272 8.75996C13.7767 2.8764 18.1307 0 25.019 0C32.1022 0 36.4562 3.00715 38.4057 9.21757C39.2505 11.8979 38.9256 14.9704 37.4959 17.5199C37.301 17.9122 36.8461 18.239 36.3912 18.1736C35.9363 18.1736 35.4814 17.9122 35.2864 17.4545C35.0915 16.9969 34.8965 16.6701 34.7016 16.2778C34.6366 16.1471 34.5716 16.0163 34.4417 15.8202C30.5426 16.6047 26.9035 16.5393 23.5243 15.5587C22.4196 15.2319 21.4448 14.8396 20.5351 14.4474C18.5855 13.6629 17.4158 13.2053 16.571 13.7283C15.8562 14.1859 15.3363 15.2972 15.1414 17.0623C15.0764 17.5853 14.6865 18.0429 14.1666 18.1736C14.1016 18.1736 13.9717 18.239 13.9067 18.239ZM34.7016 13.2707C35.2864 13.2707 35.8063 13.5322 36.1962 13.9244C36.4562 12.617 36.3912 11.2441 36.0013 9.93667C34.4417 4.90296 30.9325 2.54954 25.019 2.54954C19.2354 2.54954 15.7912 4.77222 14.1666 9.60981C13.7767 10.7211 13.6468 11.8979 13.8417 13.0746C14.2316 12.4208 14.7515 11.9632 15.3363 11.571C17.2859 10.4597 19.3004 11.3095 21.5098 12.1593C22.3546 12.4862 23.2644 12.8784 24.2392 13.1399C27.2934 14.0552 30.6076 14.1205 34.2467 13.2707C34.3767 13.2707 34.5066 13.2707 34.7016 13.2707Z" fill="#256782"/>
<path d="M25.0189 35.955C18.6505 35.955 13.1268 30.0061 11.8921 21.8345C11.7622 21.1154 12.282 20.4617 12.9319 20.3963C13.5817 20.2655 14.2965 20.7885 14.3615 21.4422C15.4013 28.3718 19.8852 33.4055 24.9539 33.4055C30.0227 33.4055 34.5066 28.3718 35.5463 21.4422C35.6763 20.7231 36.3261 20.2655 36.976 20.3963C37.6908 20.527 38.1457 21.1808 38.0157 21.8345C36.911 30.0061 31.3873 35.955 25.0189 35.955Z" fill="#256782"/>
<path d="M25.0189 64C8.9678 64 0.584856 53.0827 0.259936 52.5598C0.064984 52.3636 0 52.1021 0 51.7753C0.584856 42.9499 7.14825 35.7589 15.9861 34.2554L16.246 34.19C16.9608 34.0592 17.6107 34.5169 17.7406 35.236C17.8706 35.9551 17.4157 36.6088 16.7009 36.7395L16.441 36.8049C8.90281 38.047 3.2492 44.0613 2.53438 51.4484C4.094 53.2789 11.8271 61.5158 25.0189 61.5158C38.1456 61.5158 45.6838 53.2789 47.1784 51.5138C46.4636 44.1267 40.875 38.1124 33.3368 36.8049H33.2718H33.1419C32.427 36.7395 31.9072 36.1512 31.9722 35.4321C32.0371 34.713 32.622 34.19 33.3368 34.2554C33.4668 34.2554 33.5318 34.2554 33.6617 34.3207H33.7267C42.5646 35.8243 49.1279 43.0153 49.7128 51.8407C49.7128 52.1675 49.6478 52.429 49.4529 52.6905C49.1929 53.0827 41.0699 64 25.0189 64Z" fill="#256782"/>
<path d="M10.6573 59.62C9.94248 59.62 9.42261 59.0317 9.42261 58.3779V49.8141C9.42261 49.095 10.0075 48.572 10.6573 48.572C11.3071 48.572 11.892 49.1604 11.892 49.8141V58.3779C11.892 59.0971 11.3721 59.62 10.6573 59.62Z" fill="#256782"/>
<path d="M39.8353 58.7048C39.1205 58.7048 38.6006 58.1165 38.6006 57.4627V49.8141C38.6006 49.095 39.1854 48.572 39.8353 48.572C40.5501 48.572 41.07 49.1604 41.07 49.8141V57.4627C41.07 58.1165 40.5501 58.7048 39.8353 58.7048Z" fill="#256782"/>
<path d="M25.0189 63.9999C24.3041 63.9999 23.7842 63.4116 23.7842 62.7579V41.3156C23.7842 40.5965 24.369 40.0735 25.0189 40.0735C25.7337 40.0735 26.2536 40.6618 26.2536 41.3156V62.7579C26.3186 63.477 25.7337 63.9999 25.0189 63.9999Z" fill="#256782"/>
</g>
<defs>
<clipPath id="clip0">
<rect width="43.5556" height="55.1111" fill="white" transform="translate(36.4443 5.33337)"/>
</clipPath>
<clipPath id="clip1">
<rect width="49.7778" height="64" fill="white"/>
</clipPath>
</defs>
</svg>
