<svg width="69" height="64" viewBox="0 0 69 64" fill="none" xmlns="http://www.w3.org/2000/svg">
<g clip-path="url(#clip0)">
<path d="M40.6235 16.8728C28.1934 16.8728 18.1243 26.2465 18.1243 37.8183C18.1243 49.39 28.1934 58.7637 40.6235 58.7637C53.0537 58.7637 63.1228 49.39 63.1228 37.8183C63.1228 26.2465 53.0537 16.8728 40.6235 16.8728ZM40.6235 53.0102C31.5961 53.0102 24.3046 46.2223 24.3046 37.8183C24.3046 29.4142 31.5961 22.6263 40.6235 22.6263C49.651 22.6263 56.9425 29.4142 56.9425 37.8183C56.9425 46.2223 49.651 53.0102 40.6235 53.0102Z" fill="#EF8975"/>
<path d="M40.3458 44.0242C38.6098 44.0242 36.9432 43.3778 35.7626 42.2788C34.5127 41.1152 33.8877 39.6283 33.8877 38.0121C33.8877 36.396 34.5821 34.9091 35.7626 33.7455C36.9432 32.6465 38.6792 32 40.3458 32C42.0819 32 43.679 32.6465 44.929 33.7455C46.179 34.8444 46.8039 36.396 46.8039 38.0121C46.8039 39.6283 46.1095 41.1798 44.8596 42.2788C43.7485 43.3778 42.0819 44.0242 40.3458 44.0242ZM40.2764 34.5212C39.3042 34.5212 38.332 34.9091 37.5681 35.5556C36.8737 36.202 36.4571 37.1071 36.4571 38.0768C36.4571 38.9818 36.8737 39.8869 37.5681 40.598C38.2626 41.2444 39.2347 41.5677 40.2764 41.5677C41.318 41.5677 42.2902 41.1798 42.9152 40.598C43.6096 39.9515 44.0263 39.0465 44.0263 38.0768C44.0263 37.1071 43.6096 36.2667 42.9152 35.6202C42.2902 34.9091 41.318 34.5212 40.2764 34.5212Z" fill="#256782"/>
<path d="M18.4715 18.4243C18.1242 18.4243 17.777 18.295 17.4993 18.0364L7.70791 8.98588C7.43014 8.72729 7.29126 8.33941 7.29126 7.95153L8.12457 1.09901C8.19401 0.646483 8.54122 0.258604 9.02732 0.0646649C9.51341 -0.0646281 10.0689 1.84178e-05 10.4162 0.387897L20.2075 9.50305C20.4853 9.76164 20.6242 10.1495 20.6242 10.5374L19.7909 17.3899C19.7214 17.8424 19.3742 18.295 18.8881 18.4243C18.7492 18.4243 18.6103 18.4243 18.4715 18.4243ZM10.0689 7.6283L17.4298 14.4808L17.8465 10.8606L10.555 4.0081L10.0689 7.6283Z" fill="#256782"/>
<path d="M11.1106 19.2001C10.7634 19.2001 10.4162 19.0708 10.1385 18.8122L0.416545 9.76168C0.0693343 9.43845 -0.0695501 8.92127 0.0693343 8.46875C0.208219 8.01622 0.694314 7.69299 1.18041 7.62835L8.54128 6.85259C8.95794 6.78794 9.37459 6.91723 9.65236 7.24047L19.4437 16.291C19.7909 16.6142 19.9298 17.1314 19.7909 17.5839C19.652 18.0364 19.1659 18.3597 18.6798 18.4243L11.319 19.2001C11.2495 19.2001 11.1801 19.2001 11.1106 19.2001ZM4.30531 9.82632L11.6662 16.6789L15.5549 16.291L8.19407 9.3738L4.30531 9.82632Z" fill="#256782"/>
<path d="M39.8596 38.4C39.5124 38.4 39.1652 38.2707 38.8875 38.0121L7.70791 8.98582C7.15238 8.46865 7.15238 7.69289 7.70791 7.17572C8.26345 6.65855 9.09676 6.65855 9.65229 7.17572L40.8318 36.202C41.3874 36.7192 41.3874 37.4949 40.8318 38.0121C40.5541 38.2707 40.2069 38.4 39.8596 38.4Z" fill="#256782"/>
<path d="M40.2764 64C32.8461 64 25.8324 61.2848 20.5548 56.3717C9.72181 46.2868 9.72182 29.802 20.6242 19.7172C25.9018 14.804 32.9155 12.0889 40.3458 12.0889C47.7761 12.0889 54.7898 14.804 60.0674 19.7172C70.9004 29.8666 70.9004 46.2869 60.0674 56.4364C54.7204 61.2848 47.7761 64 40.2764 64ZM40.2764 14.6101C33.5405 14.6101 27.2213 17.0666 22.4992 21.4626C12.7078 30.5778 12.7078 45.4464 22.4992 54.6262C27.2213 59.0222 33.6099 61.4788 40.2764 61.4788C47.0123 61.4788 53.3315 59.0222 58.0536 54.6262C67.8449 45.5111 67.8449 30.6424 58.0536 21.4626C53.3315 17.0666 47.0123 14.6101 40.2764 14.6101Z" fill="#256782"/>
<path d="M40.2764 54.5616C35.5543 54.5616 31.11 52.8162 27.7768 49.7132C24.4435 46.6101 22.5686 42.4728 22.5686 38.0122C22.5686 33.6162 24.4435 29.4788 27.7768 26.3758C29.5128 24.7596 31.5961 23.4667 33.8877 22.6263C34.5821 22.3677 35.346 22.6909 35.6237 23.3374C35.9015 23.9839 35.5543 24.695 34.8599 24.9536C32.9155 25.6647 31.1794 26.699 29.6517 28.1212C26.8046 30.7717 25.2769 34.2627 25.2769 38.0122C25.2769 41.7616 26.8046 45.2526 29.6517 47.9031C32.4988 50.5536 36.2487 51.9758 40.2764 51.9758C44.304 51.9758 48.0539 50.4889 50.901 47.9031C56.7342 42.4728 56.7342 33.5515 50.901 28.1212C48.8872 26.2465 46.3178 24.8889 43.5401 24.3717C42.7763 24.2425 42.3596 23.5313 42.4985 22.8849C42.6374 22.2384 43.4013 21.7859 44.0957 21.9152C47.3595 22.5616 50.4149 24.1132 52.776 26.3758C59.6507 32.7758 59.6507 43.2485 52.776 49.7132C49.5122 52.8162 45.0679 54.5616 40.2764 54.5616Z" fill="#256782"/>
</g>
<defs>
<clipPath id="clip0">
<rect width="68.1922" height="64" fill="white"/>
</clipPath>
</defs>
</svg>
