<svg width="63" height="64" viewBox="0 0 63 64" fill="none" xmlns="http://www.w3.org/2000/svg">
<g clip-path="url(#clip0)">
<path d="M1.55591 62.3403C1.55591 62.3403 2.69691 55.1831 2.80064 53.1085C2.90437 47.4035 2.90437 42.5283 4.04537 38.5867C4.04537 38.5867 10.4765 44.2917 16.1815 39.9351C21.7828 35.6823 28.5251 38.1717 28.5251 38.1717C29.1475 38.1717 28.94 42.5283 28.94 43.1507V62.3403C28.94 62.9627 28.5251 63.3776 27.9027 63.3776H2.59319C1.97082 63.3776 1.55591 62.8589 1.55591 62.3403Z" fill="#B0E55C"/>
<path d="M48.4408 19.2929L46.2626 21.4712C36.9271 12.1357 21.6791 12.1357 12.3436 21.4712L10.1653 19.2929C20.7455 8.71265 37.9643 8.71265 48.4408 19.2929ZM54.2496 13.4841L56.4279 11.3058C41.4911 -3.73468 17.1151 -3.73468 2.17828 11.2021L4.35656 13.4841C18.1523 -0.311664 40.5575 -0.311664 54.2496 13.4841ZM58.0875 31.5327V61.4063C58.0875 62.8585 56.9465 63.9995 55.4943 63.9995H2.59319C1.141 63.9995 0 62.8585 0 61.4063V31.5327C0 30.0806 1.141 28.9395 2.59319 28.9395H55.4943C56.8428 28.9395 58.0875 30.0806 58.0875 31.5327ZM21.0567 60.8877H27.9028V32.0514H21.0567V60.8877ZM18.9822 32.0514H12.1361V60.8877H18.9822V32.0514ZM3.11183 60.8877H10.0616V32.0514H3.11183V60.8877ZM54.9757 32.0514H29.9773V60.8877H54.9757V32.0514ZM59.1248 37.549V55.3901H62.2366V37.549H59.1248Z" fill="#256782"/>
</g>
<defs>
<clipPath id="clip0">
<rect width="62.2366" height="64" fill="white"/>
</clipPath>
</defs>
</svg>
