<svg width="42" height="64" viewBox="0 0 42 64" fill="none" xmlns="http://www.w3.org/2000/svg">
<g clip-path="url(#clip0)">
<path d="M24.1764 3.65527C24.1764 3.65527 22.1243 4.55307 19.6875 6.79756C17.5071 8.78553 15.1985 11.8637 15.1985 11.8637C15.1985 11.8637 23.471 12.6974 25.6514 12.0561C27.8318 11.4148 30.9099 10.517 30.6534 10.4529C30.3969 10.3887 24.1764 3.65527 24.1764 3.65527Z" fill="#EF8975"/>
<path d="M30.6533 59.8316C30.7174 59.8957 34.4369 50.0841 35.3988 47.4548C36.2966 44.8256 34.6293 40.0801 34.6293 40.0801L35.6553 34.5651L37.4509 35.7194C37.4509 35.7194 39.8878 41.3627 39.9519 41.6192C40.016 41.8116 39.6313 50.4047 39.6313 50.4047L34.9499 63.1663L30.6533 59.8316Z" fill="#EF8975"/>
<path d="M3.14233 37.1302C3.14233 37.1302 3.39885 41.4268 5.19444 47.0059C6.99003 52.5851 10.5171 59.9598 10.7095 59.8957C10.8377 59.8316 15.1343 57.1382 15.1343 57.1382C15.1343 57.1382 10.1964 48.0961 9.17039 43.8636C8.14434 39.6312 6.66939 33.1542 6.09223 33.539C5.45095 33.9237 3.14233 37.1302 3.14233 37.1302Z" fill="#EF8975"/>
<path d="M20.7777 30.6533C17.3789 30.6533 14.6213 27.8958 14.6213 24.497C14.6213 21.0982 17.3789 18.3407 20.7777 18.3407C24.1765 18.3407 26.934 21.0982 26.934 24.497C26.934 27.8317 24.1765 30.6533 20.7777 30.6533ZM20.7777 20.7776C18.7255 20.7776 17.0582 22.4449 17.0582 24.497C17.0582 26.5491 18.7255 28.2164 20.7777 28.2164C22.8298 28.2164 24.4971 26.5491 24.4971 24.497C24.433 22.3808 22.7656 20.7776 20.7777 20.7776Z" fill="#256782"/>
<path d="M6.22049 64C6.09223 64 5.96397 64 5.77159 63.9359C5.38682 63.8076 5.13031 63.487 5.00205 63.1663L0.513073 49.3146C-1.026 43.2224 0.769586 36.8096 5.13031 32.4489C5.45095 32.1282 5.96397 32 6.41287 32.1282C6.86177 32.2565 7.18241 32.6413 7.24654 33.0902C8.08021 37.7074 9.93993 42.0681 12.3127 47.5832C13.4029 50.1483 14.6854 52.7134 16.0321 55.1503H16.2245C16.7375 55.1503 17.1223 55.4068 17.3788 55.8557C17.6353 56.4329 17.4429 57.0741 16.9299 57.4589L6.9259 63.8076C6.66939 63.9359 6.477 64 6.22049 64ZM5.32269 36.0401C2.75756 39.6313 1.85977 44.2485 2.94995 48.6092L6.9259 60.8577L13.9159 56.4329C12.5051 53.8677 11.1584 51.2385 10.0041 48.6092C8.08021 44.0561 6.34874 40.0802 5.32269 36.0401Z" fill="#256782"/>
<path d="M35.2705 63.9999C35.014 63.9999 34.8216 63.9358 34.6293 63.8075L30.012 60.8576C29.4349 60.4729 29.2425 59.7033 29.6273 59.1262C30.012 58.549 30.7816 58.3566 31.3587 58.7414L34.6293 60.7935L38.6052 48.4809C39.6954 44.1843 38.7976 39.567 36.2325 36.04C35.2064 40.0801 33.475 44.056 31.5511 48.545C30.2685 51.4308 28.8577 54.2524 27.3186 57.0099C26.998 57.5871 26.2285 57.8436 25.5872 57.4588C25.01 57.1382 24.7535 56.3686 25.1383 55.7274C26.6774 53.0981 28.024 50.3406 29.2425 47.5189C31.6152 42.0039 33.475 37.7073 34.3086 33.026C34.3727 32.5771 34.6934 32.1923 35.1423 32.064C35.5912 31.9358 36.0401 32.064 36.4249 32.3847C40.7856 36.7454 42.5812 43.1582 41.0421 49.1863L36.5531 63.1021C36.4249 63.4869 36.1683 63.7434 35.7836 63.8717C35.5912 63.9358 35.3988 63.9999 35.2705 63.9999Z" fill="#256782"/>
<path d="M26.1644 57.6513H15.3267C14.8778 57.6513 14.493 57.3947 14.2365 57.01C12.6974 54.2525 11.2225 51.4308 10.004 48.545C6.60525 40.6573 3.84773 34.3727 4.36076 26.3567C4.80966 18.2124 8.33671 12.1843 9.81166 10.004L9.87579 9.93984L9.93992 9.87571C12.5692 6.02801 15.968 2.75747 20.0722 0.256472C20.457 -4.13358e-05 20.97 -4.13358e-05 21.3547 0.256472C25.5231 2.75747 28.986 6.09214 31.6153 10.0681C31.6153 10.1322 31.6794 10.1322 31.6794 10.1964C33.2185 12.505 36.6173 18.4689 37.0662 26.4208C37.5151 34.4368 34.8217 40.6573 31.4229 48.6092L30.2686 48.0962L31.4229 48.6092C30.2044 51.4949 28.7936 54.3166 27.1904 57.0741C27.0622 57.3947 26.6133 57.6513 26.1644 57.6513ZM16.0321 55.1503H25.3948C26.8056 52.6493 28.0241 50.1483 29.1143 47.5831C32.5131 39.6953 35.0141 33.9879 34.5652 26.5491C34.1163 19.0461 30.9099 13.4669 29.499 11.4148C29.499 11.3507 29.4349 11.3507 29.4349 11.2865C27.1263 7.88773 24.1764 5.00196 20.6493 2.69335C17.1223 4.93783 14.1724 7.82361 11.8638 11.2224L11.7996 11.2865L11.7355 11.3507C10.3888 13.3386 7.1824 18.9178 6.73351 26.4208C6.28461 33.8597 8.78561 39.5671 12.1844 47.4549C13.4028 50.1483 14.6854 52.6493 16.0321 55.1503Z" fill="#256782"/>
<path d="M21.3547 13.3387C17.6994 13.3387 14.1083 12.7615 10.6453 11.6713C10.004 11.479 9.61927 10.7735 9.81166 10.1323C10.004 9.49098 10.7095 9.10621 11.3507 9.2986C17.4429 11.2866 24.1123 11.3507 30.2686 9.61924C30.9099 9.42685 31.6153 9.81162 31.8076 10.4529C32 11.0942 31.6153 11.7996 30.974 11.992C27.8958 12.8898 24.6253 13.3387 21.3547 13.3387Z" fill="#256782"/>
<path d="M23.0862 50.2124H11.5431C10.8377 50.2124 10.3247 49.6352 10.3247 48.9939C10.3247 48.3527 10.9019 47.7755 11.5431 47.7755H23.0862C23.7916 47.7755 24.3047 48.3527 24.3047 48.9939C24.3047 49.6352 23.7916 50.2124 23.0862 50.2124Z" fill="#256782"/>
</g>
<defs>
<clipPath id="clip0">
<rect width="41.491" height="64" fill="white"/>
</clipPath>
</defs>
</svg>
