<svg width="61" height="64" viewBox="0 0 61 64" fill="none" xmlns="http://www.w3.org/2000/svg">
<g clip-path="url(#clip0)">
<path d="M37.3333 1.28271C37.3333 1.28271 37.3333 8.2363 37.3333 15.595C37.3333 28.2194 28.0168 32.6076 22.2109 32.9452C24.8438 36.8608 31.7974 36.1857 33.9578 35.038C36.1181 33.8903 42.5316 28.1519 45.0295 21.5359C47.5274 14.9198 47.3924 3.64558 47.3924 3.64558L47.1898 1.28271H37.3333Z" fill="#F4C222"/>
<path d="M43.0043 64H15.9326C15.19 64 14.6499 63.3924 14.6499 62.7173V57.1139C14.6499 56.3713 15.2575 55.8312 15.9326 55.8312H43.0043C43.7469 55.8312 44.287 56.4388 44.287 57.1139V62.7173C44.3545 63.3924 43.7469 64 43.0043 64ZM17.2828 61.367H41.7216V58.3291H17.2828V61.367Z" fill="#256782"/>
<path d="M12.8271 19.9155C12.6246 19.9155 12.422 19.848 12.287 19.7805C11.2068 19.2404 9.99166 18.9029 8.70896 18.5653C5.73849 17.7552 2.43047 16.7425 0.810221 13.5695C-0.742521 10.3965 9.46112e-05 6.14338 2.36296 3.98304C4.72583 1.95773 8.57393 1.75519 12.152 3.57798C12.8271 3.91553 13.0296 4.72566 12.7596 5.33325C12.422 6.00836 11.6119 6.21089 11.0043 5.94085C8.3714 4.65815 5.67098 4.65815 4.11824 6.00836C2.5655 7.35857 2.16043 10.329 3.17309 12.4219C4.25326 14.5822 6.75115 15.2573 9.45157 16.0674C10.8018 16.4725 12.2195 16.8776 13.4347 17.4852C14.1098 17.8227 14.3798 18.5653 14.0423 19.2404C13.8398 19.6455 13.3672 19.9155 12.8271 19.9155Z" fill="#256782"/>
<path d="M12.8947 28.827C12.6922 28.827 12.5571 28.827 12.3546 28.827C10.5318 28.6245 8.91157 27.2742 8.30398 25.4515C8.10145 24.7764 8.439 24.0337 9.1141 23.7637C9.78921 23.5612 10.5318 23.8987 10.8019 24.5738C11.0719 25.4515 11.8145 26.0591 12.6922 26.1941C13.7048 26.3291 14.5149 25.654 14.785 25.1814C14.9875 24.8439 15.3926 24.5738 15.8652 24.5738C16.6078 24.5738 17.1479 25.1814 17.1479 25.8565C17.1479 26.1266 17.0803 26.3966 16.9453 26.5991C16.2027 27.6793 14.7175 28.827 12.8947 28.827Z" fill="#256782"/>
<path d="M47.2576 28.8945C45.3673 28.8945 43.9496 27.7468 43.2069 26.6666C42.8694 26.194 42.6669 25.5865 42.5318 24.9789C42.3968 24.2362 42.8019 23.5611 43.5445 23.4261C44.2871 23.2911 44.9622 23.6962 45.0972 24.4388C45.1647 24.7088 45.2323 24.9789 45.4348 25.1814C45.7048 25.654 46.515 26.3291 47.5951 26.194C48.4728 26.1265 49.2154 25.4514 49.4854 24.5738C49.688 23.8987 50.4306 23.4936 51.1732 23.7637C51.8483 23.9662 52.2534 24.7088 51.9833 25.4514C51.3757 27.2742 49.7555 28.6244 47.8652 28.827C47.5951 28.827 47.3926 28.8945 47.2576 28.8945Z" fill="#256782"/>
<path d="M45.9073 20.7258C45.5022 20.7258 45.0972 20.5232 44.8946 20.1857C44.4221 19.6456 44.5571 18.768 45.0972 18.3629C46.7174 17.1477 48.7427 16.5401 50.7005 16C53.3334 15.2574 55.8988 14.5148 56.9115 12.3545C57.9242 10.2616 57.5191 7.29118 55.9664 5.94097C54.2111 4.38823 50.9706 4.65827 48.2026 6.41354C47.595 6.81861 46.7849 6.61607 46.3799 6.00848C45.9748 5.40088 46.1773 4.59076 46.7849 4.18569C50.633 1.6878 55.0887 1.62029 57.7216 3.91565C60.152 6.00848 60.8271 10.3292 59.2744 13.4346C57.7216 16.6076 54.3461 17.5528 51.4431 18.4304C49.6204 18.9705 47.9326 19.4431 46.7174 20.3882C46.4474 20.6583 46.1773 20.7258 45.9073 20.7258Z" fill="#256782"/>
<path d="M39.8989 53.6034C39.5613 53.6034 39.2238 53.4683 38.9537 53.1983L33.5529 47.865C32.2702 46.5823 31.5275 44.827 31.5275 43.0042V35.443C31.5275 34.8354 31.9326 34.3629 32.4727 34.1603C40.4389 31.7299 46.2448 20.2532 46.2448 6.88607C46.2448 5.53586 46.1773 4.11814 46.0423 2.63291H12.9622C12.8271 4.05063 12.7596 5.46835 12.7596 6.88607C12.7596 20.2532 18.5655 31.7975 26.4643 34.2278C27.0043 34.3629 27.4094 34.9029 27.4094 35.5105V43.0717C27.4094 44.8945 26.6668 46.6498 25.3841 47.9325L19.9832 53.2658C19.4432 53.8059 18.633 53.8059 18.093 53.2658C17.5529 52.7257 17.5529 51.9156 18.093 51.3755L23.4938 46.0422C24.3039 45.2321 24.7765 44.1519 24.7765 43.0042V36.3882C16.2702 33.0802 10.1267 20.8608 10.1267 6.88607C10.1267 5.06328 10.2617 3.10548 10.4643 1.21518C10.5318 0.540079 11.0719 0.0675049 11.747 0.0675049H47.1225C47.7976 0.0675049 48.3377 0.540079 48.4052 1.21518C48.6077 3.17299 48.7427 5.06328 48.7427 6.88607C48.7427 20.9283 42.6668 33.0802 34.093 36.3882V43.0042C34.093 44.1519 34.5655 45.2321 35.3757 46.0422L40.7765 51.3755C41.3166 51.9156 41.3166 52.7257 40.7765 53.2658C40.574 53.4683 40.2364 53.6034 39.8989 53.6034Z" fill="#256782"/>
<path d="M41.1139 7.89865H11.4768C10.7342 7.89865 10.1941 7.29106 10.1941 6.61595C10.1941 5.94085 10.8017 5.33325 11.4768 5.33325H41.1814C41.9241 5.33325 42.4641 5.94085 42.4641 6.61595C42.4641 7.29106 41.8565 7.89865 41.1139 7.89865Z" fill="#256782"/>
</g>
<defs>
<clipPath id="clip0">
<rect width="60.0844" height="64" fill="white"/>
</clipPath>
</defs>
</svg>
