<svg width="20" height="20" viewBox="0 0 20 20" fill="none" xmlns="http://www.w3.org/2000/svg">
<g clip-path="url(#clip0)">
<path d="M2.50095 3.12507V0.625005C2.50095 0.279507 2.78046 0 3.12604 0C3.47145 0 3.75096 0.279507 3.75096 0.625005V3.12507C3.75096 3.47048 3.47145 3.74999 3.12604 3.74999C2.78046 3.75003 2.50095 3.47048 2.50095 3.12507ZM13.1261 3.75003C13.4714 3.75003 13.7511 3.47052 13.7511 3.12511V0.625005C13.7511 0.279507 13.4714 0 13.1261 0C12.7806 0 12.5008 0.279507 12.5008 0.625005V3.12507C12.5008 3.47048 12.7806 3.75003 13.1261 3.75003ZM20.0009 14.9999C20.0009 17.7614 17.7622 20 15.0009 20C12.2398 20 10.001 17.7614 10.001 14.9999C10.001 12.2388 12.2398 10 15.0009 10C17.7622 10 20.0009 12.2387 20.0009 14.9999ZM18.7511 14.9999C18.7511 12.9323 17.0689 11.2499 15.0009 11.2499C12.9332 11.2499 11.251 12.9322 11.251 14.9999C11.251 17.0679 12.9332 18.75 15.0009 18.75C17.0689 18.75 18.7511 17.0679 18.7511 14.9999ZM5.00101 7.50002H2.50095V10H5.00101V7.50002ZM2.50095 13.75H5.00101V11.2499H2.50095V13.75ZM6.25093 10H8.75103V7.50002H6.25093V10ZM6.25093 13.75H8.75103V11.2499H6.25093V13.75ZM1.25103 14.8756V6.24997H15.0009V8.75003H16.251V3.87459C16.251 3.1153 15.6454 2.49998 14.8972 2.49998H14.3759V3.12511C14.3759 3.81351 13.8155 4.37508 13.1261 4.37508C12.4365 4.37508 11.8761 3.81351 11.8761 3.12511V2.49998H4.37592V3.12511C4.37592 3.81351 3.81563 4.37508 3.12608 4.37508C2.43636 4.37508 1.87603 3.81351 1.87603 3.12511V2.49998H1.35535C0.607143 2.49998 0.000976562 3.1153 0.000976562 3.87459V14.8756C0.000976562 15.6324 0.607143 16.2501 1.35535 16.2501H8.75103V14.9999H1.35535C1.29872 14.9999 1.25103 14.9414 1.25103 14.8756ZM12.5008 10V7.50002H10.001V10H12.5008ZM16.876 14.9999H15.0009V13.1248C15.0009 12.7795 14.7214 12.5 14.3759 12.5C14.0304 12.5 13.7511 12.7795 13.7511 13.1248V15.6251C13.7511 15.9704 14.0304 16.2501 14.3759 16.2501H16.876C17.2215 16.2501 17.501 15.9704 17.501 15.6251C17.501 15.2796 17.2215 14.9999 16.876 14.9999Z" fill="white"/>
</g>
<defs>
<clipPath id="clip0">
<rect width="20" height="20" fill="white"/>
</clipPath>
</defs>
</svg>
